# xmcd CD database file
#
# Track frame offsets:
#	182
#	16462
#	40245
#	62940
#	84882
#	111767
#	147832
#	166465
#	185335
#	218615
#	245140
#	270865
#	282012
#	309277
#	325362
#
# Disc length: 4625 seconds
#
# Revision: 7
# Processed by: cddbd v1.5.2PL0 Copyright (c) Steve Scherf et al.
# Submitted via: CDex 1.70beta2
#
DISCID=cc120f0f
DTITLE=Various Artist - Paesaggi Sonori 1 - DAL BLUES ALLE NUOVE SONORITÀ
DYEAR=1989
DGENRE=Jazz
TTITLE0=SCOTT JOPLIN - THE ENTERTAINER
TTITLE1=JIM HALL TRIO FEAT TOM HAREL - CROSS COURT
TTITLE2=DOLLAR BRAND - STAR DANCE
TTITLE3=CHICK COREA ELEKTRIC BAND - ETERNAL CHILD
TTITLE4=JOHN SCOFIELD - DANCE ME HOME
TTITLE5=BOB BERG - COMPANY B
TTITLE6=DIANA SCHUUR - HARD DRIVIN' MAMA II
TTITLE7=RAY LYNCH - KATHLEEN'S SONG
TTITLE8=DINO BETTI VAN DER NOOT - DON'T YOU FEEL THIS WAY TOO SOMETIMES
TTITLE9=HENRI TEXIER TRANSATLANTIK QUARTET - IDEMO
TTITLE10=PAOLO CATTANEO and GIOVANNI MONTEFORTE - GUITARLUDIO PARTE I E II
TTITLE11=LE MYSTERE DES VOIX BULGARES - YOUNG VENA
TTITLE12=CLAUDIO FASOLI, K. WHEELER, J.F.J. CLARK - KSMMER TRIO
TTITLE13=MEREDITH D'AMBROSIO - EVERYBODY'S SONGS BUT NOT MY OWN
TTITLE14=ALDO ROMANO - ANNY'S LULLABY
EXTD=YEAR: 1989
EXTT0=
EXTT1=
EXTT2=
EXTT3=
EXTT4=
EXTT5=
EXTT6=
EXTT7=
EXTT8=
EXTT9=
EXTT10=
EXTT11=
EXTT12=
EXTT13=
EXTT14=
PLAYORDER=
